<svg width="32" height="32" viewBox="0 0 32 32" fill="none" xmlns="http://www.w3.org/2000/svg">
<path d="M29.3334 29.3333L2.66675 29.3333" stroke="black" stroke-width="2" stroke-linecap="round"/>
<path d="M22.6666 29.3334V8.00008C22.6666 5.48592 22.6666 4.22885 21.8855 3.4478C21.1045 2.66675 19.8474 2.66675 17.3333 2.66675H14.6666C12.1524 2.66675 10.8953 2.66675 10.1143 3.4478C9.33325 4.22885 9.33325 5.48592 9.33325 8.00008V29.3334" stroke="black" stroke-width="2"/>
<path d="M26.9999 15.3334C26.9999 15.8857 27.4476 16.3334 27.9999 16.3334C28.5522 16.3334 28.9999 15.8857 28.9999 15.3334H27.9999H26.9999ZM26.8148 11.1162L26.2592 11.9476L26.2592 11.9476L26.8148 11.1162ZM27.5505 11.8519L26.719 12.4075L26.719 12.4075L27.5505 11.8519ZM28.9999 20.6667C28.9999 20.1145 28.5522 19.6667 27.9999 19.6667C27.4476 19.6667 26.9999 20.1145 26.9999 20.6667H27.9999H28.9999ZM23.3333 10.6667V11.6667C24.2904 11.6667 24.9329 11.668 25.4228 11.7178C25.896 11.7659 26.1146 11.851 26.2592 11.9476L26.8148 11.1162L27.3703 10.2847C26.8423 9.9319 26.2565 9.79228 25.6252 9.72806C25.0106 9.66554 24.2487 9.66675 23.3333 9.66675V10.6667ZM27.9999 15.3334H28.9999C28.9999 14.4179 29.0011 13.656 28.9386 13.0414C28.8744 12.4101 28.7348 11.8243 28.382 11.2963L27.5505 11.8519L26.719 12.4075C26.8157 12.5521 26.9007 12.7707 26.9489 13.2439C26.9987 13.7337 26.9999 14.3763 26.9999 15.3334H27.9999ZM26.8148 11.1162L26.2592 11.9476C26.4412 12.0692 26.5974 12.2255 26.719 12.4075L27.5505 11.8519L28.382 11.2963C28.1145 10.896 27.7707 10.5522 27.3703 10.2847L26.8148 11.1162ZM27.9999 20.6667H26.9999V29.3334H27.9999H28.9999V20.6667H27.9999Z" fill="black"/>
<path d="M5.18515 11.1162L5.74072 11.9476L5.74072 11.9476L5.18515 11.1162ZM4.44941 11.8519L5.28088 12.4075L5.28088 12.4075L4.44941 11.8519ZM5 26.6667C5 26.1145 4.55228 25.6667 4 25.6667C3.44772 25.6667 3 26.1145 3 26.6667H4H5ZM3 21.3334C3 21.8857 3.44772 22.3334 4 22.3334C4.55228 22.3334 5 21.8857 5 21.3334H4H3ZM8.66667 10.6667V9.66675C7.75117 9.66675 6.98928 9.66554 6.37469 9.72806C5.7434 9.79228 5.15757 9.9319 4.62958 10.2847L5.18515 11.1162L5.74072 11.9476C5.88532 11.851 6.10394 11.7659 6.5771 11.7178C7.06698 11.668 7.70955 11.6667 8.66667 11.6667V10.6667ZM4 15.3334H5C5 14.3763 5.00121 13.7337 5.05104 13.2439C5.09918 12.7707 5.18426 12.5521 5.28088 12.4075L4.44941 11.8519L3.61795 11.2963C3.26515 11.8243 3.12553 12.4101 3.06131 13.0414C2.99879 13.656 3 14.4179 3 15.3334H4ZM5.18515 11.1162L4.62958 10.2847C4.22921 10.5522 3.88546 10.896 3.61794 11.2963L4.44941 11.8519L5.28088 12.4075C5.40248 12.2255 5.55873 12.0692 5.74072 11.9476L5.18515 11.1162ZM4 26.6667H3V29.3334H4H5V26.6667H4ZM4 15.3334H3V21.3334H4H5V15.3334H4Z" fill="black"/>
<path d="M16 29.3333V25.3333" stroke="black" stroke-width="2" stroke-linecap="round"/>
<path d="M13.3333 6.66675H18.6666" stroke="black" stroke-width="2" stroke-linecap="round"/>
<path d="M13.3333 18.6667H13.9999M18.6666 18.6667H16.6666" stroke="black" stroke-width="2" stroke-linecap="round"/>
<path d="M18.6667 10.6667H18.0001M13.3334 10.6667H15.3334" stroke="black" stroke-width="2" stroke-linecap="round"/>
<path d="M13.3333 14.6667H18.6666" stroke="black" stroke-width="2" stroke-linecap="round"/>
</svg>
