<svg width="32" height="32" viewBox="0 0 32 32" fill="none" xmlns="http://www.w3.org/2000/svg">
<path d="M29.3334 18.6667C29.3334 13.6384 29.3334 11.1242 27.7713 9.5621C26.7708 8.56162 25.3798 8.20192 23.1879 8.0726C21.9574 8 20.4746 8 18.6667 8H13.3334C11.5256 8 10.0427 8 8.81228 8.0726C6.62033 8.20192 5.22932 8.56162 4.22885 9.5621C2.66675 11.1242 2.66675 13.6384 2.66675 18.6667C2.66675 23.695 2.66675 26.2091 4.22885 27.7712C5.79094 29.3333 8.3051 29.3333 13.3334 29.3333H18.6667C23.6951 29.3333 26.2092 29.3333 27.7713 27.7712C28.6422 26.9003 29.0276 25.7335 29.1981 24" stroke="black" stroke-width="2" stroke-linecap="round"/>
<path d="M8.8125 8.0726C9.91043 8.04477 10.879 7.27321 11.2526 6.24043C11.2641 6.20866 11.2759 6.17332 11.2994 6.10263L11.3336 6C11.3899 5.83125 11.418 5.74685 11.4481 5.672C11.8324 4.71616 12.7328 4.06715 13.7611 4.00488C13.8416 4 13.9306 4 14.1085 4H17.8921C18.07 4 18.159 4 18.2395 4.00488C19.2678 4.06715 20.1682 4.71616 20.5525 5.672C20.5826 5.74686 20.6107 5.83124 20.667 6L20.7012 6.10263C20.7247 6.17322 20.7365 6.20868 20.748 6.24043C21.1216 7.27321 22.0902 8.04477 23.1881 8.0726" stroke="black" stroke-width="2"/>
<path d="M28.8817 11.6262C24.8686 14.2347 22.862 15.539 20.7467 16.1962C17.6548 17.1569 14.3441 17.1569 11.2522 16.1962C9.13686 15.539 7.1303 14.2347 3.11719 11.6262" stroke="black" stroke-width="2" stroke-linecap="round"/>
<path d="M10.6667 14.6667V17.3334" stroke="black" stroke-width="2" stroke-linecap="round"/>
<path d="M21.3333 14.6667V17.3334" stroke="black" stroke-width="2" stroke-linecap="round"/>
</svg>
