<svg width="32" height="32" viewBox="0 0 32 32" fill="none" xmlns="http://www.w3.org/2000/svg">
<path d="M14 18.6667L22.6667 18.6667" stroke="black" stroke-width="2" stroke-linecap="round"/>
<path d="M9.33325 18.6667H9.99992" stroke="black" stroke-width="2" stroke-linecap="round"/>
<path d="M9.33325 14H9.99992" stroke="black" stroke-width="2" stroke-linecap="round"/>
<path d="M9.33325 23.3333H9.99992" stroke="black" stroke-width="2" stroke-linecap="round"/>
<path d="M14 14H22.6667" stroke="black" stroke-width="2" stroke-linecap="round"/>
<path d="M14 23.3333H22.6667" stroke="black" stroke-width="2" stroke-linecap="round"/>
<path d="M10.6667 4.66675C10.6667 3.56218 11.5622 2.66675 12.6667 2.66675H19.3334C20.438 2.66675 21.3334 3.56218 21.3334 4.66675V6.00008C21.3334 7.10465 20.438 8.00008 19.3334 8.00008H12.6667C11.5622 8.00008 10.6667 7.10465 10.6667 6.00008V4.66675Z" stroke="black" stroke-width="2"/>
<path d="M28 21.3336C28 25.1049 28 26.9905 26.8284 28.162C25.6569 29.3336 23.7712 29.3336 20 29.3336H12C8.22876 29.3336 6.34315 29.3336 5.17157 28.162C4 26.9905 4 25.1049 4 21.3336V17.3336M21.3333 5.33594C24.2334 5.35208 25.8039 5.48068 26.8284 6.50519C28 7.67677 28 9.56238 28 13.3336V16.0003M10.6667 5.33594C7.76663 5.35208 6.19608 5.48068 5.17157 6.50519C4.14709 7.52967 4.01847 9.10015 4.00232 12" stroke="black" stroke-width="2" stroke-linecap="round"/>
</svg>
