<svg width="32" height="32" viewBox="0 0 32 32" fill="none" xmlns="http://www.w3.org/2000/svg">
<path d="M19.1468 5.43829L20.3827 4.20245C22.4303 2.15485 25.7501 2.15485 27.7977 4.20245C29.8453 6.25006 29.8453 9.56988 27.7977 11.6175L26.5619 12.8533M19.1468 5.43829C19.1468 5.43829 19.3013 8.06445 21.6185 10.3816C23.9357 12.6988 26.5619 12.8533 26.5619 12.8533M19.1468 5.43829L16.0001 8.58504M26.5619 12.8533L19.5477 19.8675L15.4151 24.0001L15.2002 24.215C14.4307 24.9845 14.0459 25.3693 13.6216 25.7002C13.1212 26.0906 12.5797 26.4252 12.0067 26.6983C11.521 26.9298 11.0048 27.1018 9.97232 27.446L5.59731 28.9043M5.59731 28.9043L4.52787 29.2608C4.01979 29.4302 3.45962 29.2979 3.08092 28.9192C2.70222 28.5405 2.56999 27.9804 2.73935 27.4723L3.09583 26.4029M5.59731 28.9043L3.09583 26.4029M3.09583 26.4029L4.55416 22.0278C4.89832 20.9954 5.07039 20.4792 5.30187 19.9934C5.57493 19.4205 5.90959 18.879 6.29995 18.3785C6.63086 17.9543 7.01563 17.5695 7.78518 16.7999L11.3334 13.2517" stroke="black" stroke-width="2" stroke-linecap="round"/>
</svg>
