<svg width="32" height="32" viewBox="0 0 32 32" fill="none" xmlns="http://www.w3.org/2000/svg">
<path d="M16 12.0001L21.3333 6.66675M16 19.3334L20 15.3334M24.6667 10.6667L22.5 12.8334M16 26.0001L18.5 23.5001M26 16.0001L21 21.0001" stroke="black" stroke-width="2" stroke-linecap="round"/>
<path d="M16 29.3333C21.8911 29.3333 26.6667 24.4721 26.6667 18.4755C26.6667 12.526 23.2623 5.58337 17.9506 3.10066C17.3315 2.81128 16.6658 2.66659 16 2.66659M16 29.3333C10.109 29.3333 5.33337 24.4721 5.33337 18.4755C5.33337 16.3608 5.76348 14.1207 6.55645 11.9999M16 29.3333V2.66659M16 2.66659C15.3343 2.66659 14.6686 2.81128 14.0495 3.10066C11.9148 4.09843 10.0881 5.81653 8.66671 7.90102" stroke="black" stroke-width="2" stroke-linecap="round"/>
</svg>
