<svg width="32" height="32" viewBox="0 0 32 32" fill="none" xmlns="http://www.w3.org/2000/svg">
<path d="M29.3333 29.3333L2.66663 29.3333" stroke="black" stroke-width="2" stroke-linecap="round"/>
<path d="M2.66663 14.6667L8.0839 10.3329M29.3333 14.6667L18.4987 5.99908C17.0379 4.83038 14.9621 4.83038 13.5012 5.99908L12.4586 6.83314" stroke="black" stroke-width="2" stroke-linecap="round"/>
<path d="M20.6666 7.33333V4.66667C20.6666 4.29848 20.9651 4 21.3333 4H24.6666C25.0348 4 25.3333 4.29848 25.3333 4.66667V11.3333" stroke="black" stroke-width="2" stroke-linecap="round"/>
<path d="M5.33337 29.3334V12.6667" stroke="black" stroke-width="2" stroke-linecap="round"/>
<path d="M26.6666 12.6666V17.9999M26.6666 29.3333V23.3333" stroke="black" stroke-width="2" stroke-linecap="round"/>
<path d="M20 29.3334V22.6667C20 20.7811 20 19.8383 19.4142 19.2525C18.8284 18.6667 17.8856 18.6667 16 18.6667C14.1144 18.6667 13.1716 18.6667 12.5858 19.2525M12 29.3334V22.6667" stroke="black" stroke-width="2" stroke-linecap="round" stroke-linejoin="round"/>
<path d="M18.6667 12.6667C18.6667 14.1394 17.4728 15.3333 16 15.3333C14.5273 15.3333 13.3334 14.1394 13.3334 12.6667C13.3334 11.1939 14.5273 10 16 10C17.4728 10 18.6667 11.1939 18.6667 12.6667Z" stroke="black" stroke-width="2"/>
</svg>
