<svg width="32" height="32" viewBox="0 0 32 32" fill="none" xmlns="http://www.w3.org/2000/svg">
<path d="M9.99012 8.10327H7.5763C6.72616 8.10327 6.03699 8.79245 6.03699 9.64259V29.2528C6.03699 30.103 6.72616 30.7921 7.5763 30.7921H9.99012C10.8403 30.7921 11.5294 30.103 11.5294 29.2528V9.64259C11.5294 8.79245 10.8403 8.10327 9.99012 8.10327Z" stroke="black" stroke-width="2" stroke-linecap="round"/>
<path d="M15.4813 8.10327H13.0675C12.2174 8.10327 11.5282 8.79245 11.5282 9.64259V29.2528C11.5282 30.103 12.2174 30.7921 13.0675 30.7921H15.4813C16.3315 30.7921 17.0206 30.103 17.0206 29.2528V9.64259C17.0206 8.79245 16.3315 8.10327 15.4813 8.10327Z" stroke="black" stroke-width="2" stroke-linecap="round"/>
<path d="M20.9738 8.10327H18.5599C17.7098 8.10327 17.0206 8.79245 17.0206 9.64259V29.2528C17.0206 30.103 17.7098 30.7921 18.5599 30.7921H20.9738C21.8239 30.7921 22.5131 30.103 22.5131 29.2528V9.64259C22.5131 8.79245 21.8239 8.10327 20.9738 8.10327Z" stroke="black" stroke-width="2" stroke-linecap="round"/>
<path d="M26.4651 8.10327H24.0513C23.2011 8.10327 22.512 8.79245 22.512 9.64259V29.2528C22.512 30.103 23.2011 30.7921 24.0513 30.7921H26.4651C27.3152 30.7921 28.0044 30.103 28.0044 29.2528V9.64259C28.0044 8.79245 27.3152 8.10327 26.4651 8.10327Z" stroke="black" stroke-width="2" stroke-linecap="round"/>
<path d="M6.037 13.196H3.19396C2.53407 13.196 2 13.7301 2 14.39V16.213C2 16.8729 2.53407 17.407 3.19396 17.407H6.037" stroke="black" stroke-width="2" stroke-linecap="round"/>
<path d="M28.0044 13.3047H30.0001" stroke="black" stroke-width="2" stroke-linecap="round"/>
<path d="M28.0044 25.5908H30.0001" stroke="black" stroke-width="2" stroke-linecap="round"/>
<path d="M11.5282 1V4.36355" stroke="black" stroke-width="2" stroke-linecap="round"/>
<path d="M16.9553 1V4.36355" stroke="black" stroke-width="2" stroke-linecap="round"/>
<path d="M22.3823 1V4.36355" stroke="black" stroke-width="2" stroke-linecap="round"/>
</svg>
