<svg width="32" height="32" viewBox="0 0 32 32" fill="none" xmlns="http://www.w3.org/2000/svg">
<path d="M9.3335 18.6663L12.3908 15.609C12.6409 15.359 12.9799 15.2186 13.3335 15.2186C13.687 15.2186 14.0261 15.359 14.2762 15.609L16.3908 17.7237C16.6409 17.9736 16.9799 18.1141 17.3335 18.1141C17.687 18.1141 18.0261 17.9736 18.2762 17.7237L22.6668 13.333M22.6668 13.333V16.6663M22.6668 13.333H19.3335" stroke="black" stroke-width="2" stroke-linecap="round" stroke-linejoin="round"/>
<path d="M29.3334 15.9998C29.3334 22.2852 29.3334 25.4278 27.3801 27.3798C25.4294 29.3332 22.2854 29.3332 16.0001 29.3332C9.71475 29.3332 6.57208 29.3332 4.61875 27.3798C2.66675 25.4292 2.66675 22.2852 2.66675 15.9998C2.66675 9.7145 2.66675 6.57184 4.61875 4.6185C6.57341 2.6665 9.71475 2.6665 16.0001 2.6665C22.2854 2.6665 25.4281 2.6665 27.3801 4.6185C28.6787 5.91717 29.1134 7.7425 29.2601 10.6665" stroke="black" stroke-width="2" stroke-linecap="round"/>
</svg>
