<svg width="32" height="32" viewBox="0 0 32 32" fill="none" xmlns="http://www.w3.org/2000/svg">
<circle cx="16" cy="16" r="4" stroke="black" stroke-width="2"/>
<path d="M4.88228 14.1856C5.51234 14.5815 5.91774 15.2559 5.91774 16C5.91773 16.7441 5.51233 17.4185 4.88228 17.8144C4.45353 18.0837 4.1773 18.2991 3.98076 18.5552C3.55021 19.1163 3.3602 19.8254 3.45251 20.5266C3.52175 21.0525 3.83238 21.5905 4.45363 22.6666C5.07489 23.7426 5.38551 24.2807 5.80633 24.6036C6.36743 25.0341 7.07657 25.2241 7.77777 25.1318C8.09782 25.0897 8.42236 24.9581 8.86993 24.7216C9.5279 24.3738 10.3148 24.3599 10.9593 24.7321C11.6037 25.1042 11.985 25.7925 12.0128 26.5361C12.0317 27.0421 12.0801 27.389 12.2036 27.6872C12.4743 28.3406 12.9934 28.8598 13.6468 29.1304C14.1369 29.3334 14.7581 29.3334 16.0006 29.3334C17.2432 29.3334 17.8644 29.3334 18.3545 29.1304C19.0079 28.8598 19.527 28.3406 19.7977 27.6872C19.9212 27.389 19.9696 27.0421 19.9885 26.5362C20.0163 25.7925 20.3976 25.1042 21.0421 24.7321C21.6866 24.3601 22.4733 24.374 23.1312 24.7217C23.5789 24.9583 23.9034 25.0898 24.2235 25.132C24.9247 25.2243 25.6339 25.0343 26.195 24.6037C26.6158 24.2808 26.9264 23.7428 27.5477 22.6667C27.8242 22.1877 28.0393 21.8153 28.1988 21.5031M27.119 17.8145C26.4889 17.4186 26.0835 16.7443 26.0835 16.0002C26.0834 15.256 26.4889 14.5816 27.119 14.1856C27.5477 13.9163 27.8239 13.701 28.0204 13.4449C28.4509 12.8838 28.6409 12.1746 28.5486 11.4734C28.4794 10.9476 28.1688 10.4095 27.5475 9.33348C26.9263 8.25743 26.6156 7.71941 26.1948 7.3965C25.6337 6.96596 24.9246 6.77595 24.2234 6.86826C23.9033 6.9104 23.5787 7.04195 23.1311 7.27853C22.4732 7.62626 21.6864 7.64014 21.042 7.26803C20.3976 6.89595 20.0163 6.20768 19.9885 5.46412C19.9696 4.95811 19.9212 4.61121 19.7977 4.31292C19.527 3.65952 19.0079 3.14039 18.3545 2.86974C17.8644 2.66675 17.2432 2.66675 16.0006 2.66675C14.7581 2.66675 14.1369 2.66675 13.6468 2.86974C12.9934 3.14039 12.4743 3.65952 12.2036 4.31293C12.0801 4.61119 12.0317 4.95805 12.0128 5.464C11.985 6.20763 11.6036 6.89596 10.9592 7.26803C10.3147 7.64011 9.52796 7.6262 8.87005 7.27848C8.42242 7.04189 8.09786 6.91033 7.77778 6.86819C7.07659 6.77588 6.36744 6.9659 5.80635 7.39644C5.38553 7.71935 5.0749 8.25737 4.45364 9.33341C4.17707 9.81246 3.96205 10.1849 3.8025 10.4971" stroke="black" stroke-width="2" stroke-linecap="round"/>
</svg>
