<svg width="24" height="24" viewBox="0 0 24 24" fill="none" xmlns="http://www.w3.org/2000/svg">
<path d="M6.16309 4.93605C6.51563 4.93605 6.80141 4.65027 6.80141 4.29774C6.80141 3.94521 6.51563 3.65942 6.16309 3.65942C5.81056 3.65942 5.52478 3.94521 5.52478 4.29774C5.52478 4.65027 5.81056 4.93605 6.16309 4.93605Z" fill="black"/>
<path d="M8.84407 2H3.78015V13.0637H8.84407V2Z" stroke="black" stroke-width="1.5" stroke-linecap="round" stroke-linejoin="round"/>
<path d="M5.90808 13.0637H19.9504C19.9504 13.0637 19.5944 15.5354 17.7379 16.6806C15.7378 17.9147 13.6104 18.1702 13.6104 18.1702C13.6104 18.1702 13.653 20.2556 14.2488 22.0001" stroke="black" stroke-width="1.5" stroke-linecap="round" stroke-linejoin="round"/>
<path d="M6.63098 21.9995H14.7161" stroke="black" stroke-width="1.5" stroke-linecap="round" stroke-linejoin="round"/>
<path d="M6.24829 13.0637C6.24829 13.0637 6.41867 14.9361 6.9718 15.9571C7.52492 16.9782 7.99285 18.553 6.9718 21.9995" stroke="black" stroke-width="1.5" stroke-linecap="round" stroke-linejoin="round"/>
<path d="M19.9498 13.0637V12.8526C19.9498 11.865 19.149 11.0642 18.1614 11.0642H8.84412" stroke="black" stroke-width="1.5" stroke-linecap="round" stroke-linejoin="round"/>
</svg>
