<svg width="32" height="32" viewBox="0 0 32 32" fill="none" xmlns="http://www.w3.org/2000/svg">
<circle cx="12.0001" cy="8.00008" r="5.33333" stroke="black" stroke-width="2"/>
<path d="M20 12C22.2091 12 24 10.2091 24 8C24 5.79086 22.2091 4 20 4" stroke="black" stroke-width="2" stroke-linecap="round"/>
<path d="M7.85228 27.4456C9.10178 27.8004 10.5102 27.9999 12.0001 27.9999C17.1547 27.9999 21.3334 25.6121 21.3334 22.6666C21.3334 19.7211 17.1547 17.3333 12.0001 17.3333C6.84542 17.3333 2.66675 19.7211 2.66675 22.6666C2.66675 23.127 2.76884 23.5738 2.96079 23.9999" stroke="black" stroke-width="2" stroke-linecap="round"/>
<path d="M24 18.6667C26.339 19.1797 28 20.4787 28 22.0001C28 23.3725 26.6484 24.564 24.6667 25.1607" stroke="black" stroke-width="2" stroke-linecap="round"/>
</svg>
