<svg width="32" height="32" viewBox="0 0 32 32" fill="none" xmlns="http://www.w3.org/2000/svg">
<path d="M28.6434 25.3333C28.5915 26.5815 28.4244 27.3468 27.8856 27.8855C27.1046 28.6666 25.8475 28.6666 23.3333 28.6666C20.8192 28.6666 19.5621 28.6666 18.781 27.8855C18 27.1045 18 25.8474 18 23.3333V20.6666C18 18.1524 18 16.8953 18.781 16.1143C19.5621 15.3333 20.8192 15.3333 23.3333 15.3333C25.8475 15.3333 27.1046 15.3333 27.8856 16.1143C28.5943 16.823 28.66 17.9237 28.666 19.9999" stroke="black" stroke-width="2" stroke-linecap="round"/>
<path d="M2.66675 11.3333C2.66675 13.8474 2.66675 15.1045 3.4478 15.8855C4.22885 16.6666 5.48592 16.6666 8.00008 16.6666C10.5142 16.6666 11.7713 16.6666 12.5524 15.8855C13.3334 15.1045 13.3334 13.8474 13.3334 11.3333V8.66658C13.3334 6.15243 13.3334 4.89535 12.5524 4.1143C11.7713 3.33325 10.5142 3.33325 8.00008 3.33325C5.48592 3.33325 4.22885 3.33325 3.4478 4.1143C2.66675 4.89535 2.66675 6.15243 2.66675 8.66658V11.3333Z" stroke="black" stroke-width="2"/>
<path d="M20.6667 3.35132C20.2303 3.37364 19.9181 3.42378 19.6462 3.53639C18.9928 3.80705 18.4736 4.32618 18.203 4.97958C18 5.46964 18 6.0909 18 7.33341C18 8.57592 18 9.19717 18.203 9.68723C18.4736 10.3406 18.9928 10.8598 19.6462 11.1304C20.1362 11.3334 20.7575 11.3334 22 11.3334H24.6667C25.9092 11.3334 26.5304 11.3334 27.0205 11.1304C27.6739 10.8598 28.193 10.3406 28.4637 9.68723C28.6667 9.19717 28.6667 8.57592 28.6667 7.33341C28.6667 6.0909 28.6667 5.46964 28.4637 4.97958C28.193 4.32618 27.6739 3.80705 27.0205 3.53639C26.7486 3.42378 26.4363 3.37364 26 3.35132" stroke="black" stroke-width="2" stroke-linecap="round"/>
<path d="M2.66675 24.6667C2.66675 25.9093 2.66675 26.5305 2.86974 27.0206C3.14039 27.674 3.65952 28.1931 4.31293 28.4638C4.80298 28.6667 5.42424 28.6667 6.66675 28.6667H9.33341C10.5759 28.6667 11.1972 28.6667 11.6872 28.4638C12.3406 28.1931 12.8598 27.674 13.1304 27.0206C13.3334 26.5305 13.3334 25.9093 13.3334 24.6667C13.3334 23.4242 13.3334 22.803 13.1304 22.3129C12.8598 21.6595 12.3406 21.1404 11.6872 20.8697C11.1972 20.6667 10.5759 20.6667 9.33341 20.6667H6.66675C5.42424 20.6667 4.80298 20.6667 4.31293 20.8697C3.65952 21.1404 3.14039 21.6595 2.86974 22.3129C2.66675 22.803 2.66675 23.4242 2.66675 24.6667Z" stroke="black" stroke-width="2"/>
</svg>
