<svg width="32" height="32" viewBox="0 0 32 32" fill="none" xmlns="http://www.w3.org/2000/svg">
<path d="M5.33337 13.3334V17.3334C5.33337 22.3617 5.33337 24.8759 6.89547 26.438C8.45757 28.0001 10.9717 28.0001 16 28.0001C21.0284 28.0001 23.5425 28.0001 25.1046 26.438C26.6667 24.8759 26.6667 22.3617 26.6667 17.3334V13.3334C26.6667 8.3051 26.6667 5.79094 25.1046 4.22885C23.5425 2.66675 21.0284 2.66675 16 2.66675C10.9717 2.66675 8.45757 2.66675 6.89547 4.22885C6.02456 5.09975 5.63921 6.2666 5.4687 8.00008" stroke="black" stroke-width="2" stroke-linecap="round"/>
<path d="M22.6667 28V29.3333H21.3334V28M10.6667 28V29.3333H9.33337V28" stroke="black" stroke-width="2" stroke-linejoin="round"/>
<path d="M26.6667 15.3333H20M5.33337 15.3333H14.6667" stroke="black" stroke-width="2" stroke-linecap="round"/>
<path d="M22.6666 9.33333L22.6666 12" stroke="black" stroke-width="2" stroke-linecap="round"/>
<path d="M22.6666 18.6666L22.6666 21.3333" stroke="black" stroke-width="2" stroke-linecap="round"/>
</svg>
