<svg width="37" height="32" viewBox="0 0 37 32" fill="none" xmlns="http://www.w3.org/2000/svg">
<path d="M14.3698 11.1454L15.6836 10.2634L13.5432 1.83105L11.2734 3.14024C11.9846 7.00776 13.3492 10.0648 14.0327 11.4271C14.1342 11.3255 14.2451 11.2286 14.3698 11.1454Z" fill="#1A1A32"/>
<path d="M13.4184 15.9873V13.5791L7.45666 7.45569L6.14748 9.7254C9.6294 13.8146 13.4184 15.9873 13.4184 15.9873Z" fill="#1A1A32"/>
<path d="M22.3542 7.60346L23.481 8.35849L29.5421 2.45677L27.2723 1.14758C24.5454 3.47041 22.6706 5.92715 21.7262 7.30791C21.9455 7.37487 22.158 7.47416 22.3542 7.60346Z" fill="#1A1A32"/>
<path d="M26.8845 10.6443L35.1691 8.54315L33.8599 6.27344C29.205 7.13006 25.7208 8.93337 24.9588 9.35129L26.8845 10.6443Z" fill="#1A1A32"/>
<path d="M19.4403 7.73966L21.6269 0H19.0062C17.4315 4.4286 17.2444 8.32383 17.2213 9.22895L19.4403 7.73966Z" fill="#1A1A32"/>
<path d="M13.4185 17.7491L5 15.3732V17.9938C8.59737 19.273 11.8415 19.6355 13.4185 19.7394V17.7491Z" fill="#1A1A32"/>
<path d="M22.7488 23.5815L20.3729 32H22.9935C24.2727 28.4027 24.6352 25.1586 24.7391 23.5815H22.7488Z" fill="#1A1A32"/>
<path d="M28.48 12.2537C28.5446 12.4522 28.5816 12.6577 28.5816 12.8701V14.2486L37.0001 16.6245V14.0039C33.3242 12.6947 30.0154 12.346 28.48 12.2513V12.2537Z" fill="#1A1A32"/>
<path d="M13.4487 21.7782L6.83119 23.4568L8.14038 25.7265C11.1166 25.1793 13.6149 24.2442 15.2266 23.5307C14.3053 23.3437 13.5919 22.6487 13.4464 21.7782H13.4487Z" fill="#1A1A32"/>
<path d="M28.5812 16.0104V18.4186L34.5429 24.542L35.8521 22.2723C32.3702 18.1831 28.5835 16.0127 28.5812 16.0104Z" fill="#1A1A32"/>
<path d="M18.5786 23.5815L12.4552 29.5433L14.725 30.8525C18.8141 27.3706 20.9869 23.5815 20.9869 23.5815H18.5786Z" fill="#1A1A32"/>
<path d="M26.7735 23.5307L28.4568 30.169L30.7265 28.8598C30.1839 25.9043 29.258 23.4222 28.5468 21.8082C28.3898 22.6649 27.6833 23.346 26.7735 23.5307Z" fill="#1A1A32"/>
</svg>
