<svg width="110" height="20" viewBox="0 0 110 20" fill="none" xmlns="http://www.w3.org/2000/svg">
<path d="M0 11.7051C0 7.24001 3.04425 4.0188 7.30158 4.0188C11.1742 4.0188 14.0697 6.76811 14.0697 11.0844C14.0697 11.4666 14.0389 11.941 13.9825 12.3257H2.68776C2.92371 15.1648 4.72666 16.996 7.32979 16.996C9.16352 16.996 10.7895 16.0214 11.2332 14.7801H13.8927C13.3593 17.4704 10.6715 19.3914 7.36057 19.3914C3.04425 19.3914 0 16.1394 0 11.7051ZM11.3537 10.2278C11.1768 7.98119 9.63798 6.41419 7.36313 6.41419C5.08828 6.41419 3.28276 7.98119 2.78265 10.2278H11.3563H11.3537Z" fill="#1A1A32"/>
<path d="M53.4704 6.41419C51.1648 6.41419 49.744 8.04018 49.744 10.6407V19.0656H47.1716V4.31373H49.4491L49.5978 5.99871H49.7748C50.5134 4.78563 52.1086 4.0188 54.0321 4.0188C57.3149 4.0188 59.4717 6.26544 59.4717 9.84314V19.0656H56.9276V10.2868C56.9276 7.86322 55.6273 6.41419 53.4704 6.41419Z" fill="#1A1A32"/>
<path d="M60.5617 15.1032C60.5617 12.0872 63.193 10.374 67.953 10.0201L69.697 9.90212V9.39945C69.697 7.50673 68.6327 6.3552 66.7399 6.3552C65.0857 6.3552 63.8137 7.24257 63.5469 8.71981H60.8848C61.0926 5.9705 63.5162 4.02136 66.7374 4.02136C69.9586 4.02136 72.2668 6.15003 72.2668 9.461V16.0547C72.2668 16.8523 72.6823 17.2678 73.3901 17.2678C73.5671 17.2678 73.685 17.237 73.9518 17.1781L74.1877 19.0708C73.8338 19.2195 73.3003 19.3067 72.8284 19.3067C71.2922 19.3067 70.1971 18.3911 70.0201 17.0011V16.9703H69.8432C68.8096 18.5681 67.2118 19.3939 65.2627 19.3939C62.4262 19.3939 60.5617 17.6782 60.5617 15.1084V15.1032ZM65.5294 17.0267C67.9248 17.0267 69.697 15.1058 69.697 12.2667V11.9128L67.835 12.0616C64.9088 12.2693 63.2238 13.3029 63.2238 15.0468C63.2238 16.2291 64.0214 17.0267 65.5294 17.0267Z" fill="#1A1A32"/>
<path d="M74.3981 13.803V4.31372H76.9704V13.3311C76.9704 15.6059 78.2707 16.996 80.2814 16.996C82.4409 16.996 83.8591 15.37 83.8591 13.0053V4.31372H86.4007V19.0656H84.154L84.0053 17.3806H83.8283C82.9717 18.6527 81.6997 19.3913 79.9275 19.3913C76.7627 19.3913 74.3981 17.1447 74.3981 13.8055V13.803Z" fill="#1A1A32"/>
<path d="M89.9763 15.2238V6.62194H87.109V4.31632H87.7015C89.3864 4.31632 90.0661 3.42895 90.1841 1.53623L90.2738 0H92.5205V4.31632H96.0084V6.62194H92.5205V15.0468C92.5205 16.2881 93.3488 17.0857 94.5312 17.0857C94.9466 17.0857 95.4185 16.996 95.8032 16.878L96.2469 19.0067C95.6852 19.2426 95.0954 19.3888 94.267 19.3888C91.7228 19.3888 89.9789 17.9398 89.9789 15.2212L89.9763 15.2238Z" fill="#1A1A32"/>
<path d="M95.7105 11.7051C95.7105 7.24001 98.7547 4.0188 103.012 4.0188C106.885 4.0188 109.78 6.76811 109.78 11.0844C109.78 11.4666 109.749 11.941 109.693 12.3257H98.3982C98.6342 15.1648 100.437 16.996 103.04 16.996C104.874 16.996 106.5 16.0214 106.944 14.7801H109.603C109.07 17.4704 106.382 19.3914 103.071 19.3914C98.7547 19.3914 95.7105 16.1394 95.7105 11.7051ZM107.064 10.2278C106.887 7.98119 105.348 6.41419 103.074 6.41419C100.799 6.41419 98.9932 7.98119 98.4931 10.2278H107.067H107.064Z" fill="#1A1A32"/>
<path d="M89.9758 4.31372H84.5618V6.61935H89.9758V4.31372Z" fill="#1A1A32"/>
<path d="M45.8867 11.6897C45.8867 7.4375 42.4398 3.9906 38.1876 3.9906C33.9354 3.9906 30.4885 7.4375 30.4885 11.6897C30.4885 15.9419 33.9354 19.3888 38.1876 19.3888C42.4398 19.3888 45.8867 15.9419 45.8867 11.6897ZM43.4631 11.6923C43.4631 14.6057 41.1011 16.9703 38.1851 16.9703C35.2716 16.9703 32.907 14.6083 32.907 11.6923C32.907 8.77882 35.269 6.4142 38.1851 6.4142C41.0985 6.4142 43.4631 8.77625 43.4631 11.6923Z" fill="#1A1A32"/>
<path d="M26.9595 14.875C25.9952 16.1445 24.4744 16.9703 22.7586 16.9703C19.8452 16.9703 17.4806 14.6083 17.4806 11.6923C17.4806 8.77881 19.8426 6.4142 22.7586 6.4142C24.7514 6.4142 26.4851 7.51957 27.3827 9.15069L29.1446 7.38877C27.7597 5.33961 25.4182 3.99316 22.7586 3.99316C18.5064 3.99316 15.0595 7.44006 15.0595 11.6923C15.0595 15.9445 18.5064 19.3914 22.7586 19.3914C25.1438 19.3914 27.2776 18.304 28.6881 16.601L26.9595 14.8724V14.875Z" fill="#1A1A32"/>
</svg>
