<svg width="62" height="60" viewBox="0 0 62 60" fill="none" xmlns="http://www.w3.org/2000/svg">
<g clip-path="url(#clip0_2873_7369)">
<path d="M26.3082 9.96032V2.43453L7.67775 -16.701L3.58655 -9.60819C14.4676 3.17051 26.3082 9.96032 26.3082 9.96032Z" fill="#E0CCFF"/>
<path d="M26.3078 15.4657L0 8.04095V16.2306C11.2418 20.228 21.3796 21.3608 26.3078 21.6855V15.4657Z" fill="#E0CCFF"/>
<path d="M55.4659 33.6922L48.0411 60H56.2307C60.2281 48.7582 61.3609 38.6204 61.6856 33.6922H55.4659Z" fill="#E0CCFF"/>
<path d="M26.4019 28.0569L5.7222 33.3026L9.8134 40.3954C19.1142 38.6854 26.9214 35.7631 31.9579 33.5335C29.0789 32.949 26.8493 30.7771 26.3947 28.0569H26.4019Z" fill="#E0CCFF"/>
<path d="M42.4347 33.6922L23.2991 52.3227L30.392 56.4139C43.1707 45.5329 49.9605 33.6922 49.9605 33.6922H42.4347Z" fill="#E0CCFF"/>
</g>
<defs>
<clipPath id="clip0_2873_7369">
<rect width="100" height="100" fill="white" transform="translate(0 -40)"/>
</clipPath>
</defs>
</svg>
